<svg xmlns="http://www.w3.org/2000/svg" viewBox="0 0 512 512" width="512" height="512">
  <defs>
    <linearGradient id="melephBg" x1="0%" y1="0%" x2="100%" y2="100%">
      <stop offset="0%" stop-color="#0D1B2A" />
      <stop offset="100%" stop-color="#060E17" />
    </linearGradient>
    <linearGradient id="goldDot" x1="0%" y1="0%" x2="100%" y2="100%">
      <stop offset="0%" stop-color="#E8CE96" />
      <stop offset="100%" stop-color="#C9A968" />
    </linearGradient>
    <filter id="subtleGlow" x="-20%" y="-20%" width="140%" height="140%">
      <feGaussianBlur stdDeviation="8" result="blur" />
      <feComposite in="SourceGraphic" in2="blur" operator="over" />
    </filter>
  </defs>

  <!-- Architectural Squircle Base -->
  <rect width="512" height="512" rx="116" fill="url(#melephBg)" />
  <rect x="10" y="10" width="492" height="492" rx="108" fill="none" stroke="#C9A968" stroke-opacity="0.28" stroke-width="6" />

  <!-- High-Contrast Serif 'M' Letterform -->
  <g fill="#FAF8F3">
    <!-- Left Stem & Serifs -->
    <path d="
      M 112 376
      L 112 362
      C 134 360 144 350 144 326
      L 144 186
      C 144 162 134 152 112 150
      L 112 136
      L 194 136
      L 194 150
      C 172 152 162 162 162 186
      L 162 326
      C 162 350 172 360 194 362
      L 194 376
      Z
    " />

    <!-- Center Diagonal Apex & V-cut -->
    <path d="
      M 176 170
      L 256 348
      L 336 170
      L 358 170
      L 272 376
      L 240 376
      L 154 170
      Z
    " />

    <!-- Right Stem & Serifs -->
    <path d="
      M 318 376
      L 318 362
      C 340 360 350 350 350 326
      L 350 186
      C 350 162 340 152 318 150
      L 318 136
      L 400 136
      L 400 150
      C 378 152 368 162 368 186
      L 368 326
      C 368 350 378 360 400 362
      L 400 376
      Z
    " />
  </g>

  <!-- Muted Gold Intelligence Pulse (Mel System Active) -->
  <circle cx="410" cy="102" r="26" fill="url(#goldDot)" filter="url(#subtleGlow)" />
  <circle cx="410" cy="102" r="12" fill="#FFF2D6" />
</svg>